<?xml version="1.0" encoding="iso-8859-1"?>
<!-- Generator: Adobe Illustrator 19.0.0, SVG Export Plug-In . SVG Version: 6.00 Build 0)  -->
<svg version="1.1" id="Capa_1" xmlns="http://www.w3.org/2000/svg" xmlns:xlink="http://www.w3.org/1999/xlink" x="0px" y="0px"
	 viewBox="0 0 512 512" style="enable-background:new 0 0 512 512;" xml:space="preserve">
<g>
	<path style="fill:#62BEFF;" d="M314.368,436.395c13.201,4.233,20.471,18.372,16.239,31.573s-18.372,20.471-31.573,16.239
		c-13.201-4.233-20.471-18.372-16.239-31.573c3.388-10.564,13.312-17.655,24.405-17.434
		C309.632,435.251,312.047,435.652,314.368,436.395z"/>
	<path style="fill:#62BEFF;" d="M467.883,176.128c6.306,4.77,10.001,12.228,9.984,20.139c0,14.14-11.46,25.6-25.6,25.6
		c-14.14,0-25.6-11.46-25.6-25.6s11.46-25.6,25.6-25.6C457.941,170.675,463.445,172.595,467.883,176.128z"/>
	<path style="fill:#62BEFF;" d="M59.733,179.2c14.08-0.06,25.54,11.307,25.6,25.395c0.034,7.27-3.046,14.208-8.448,19.063
		c-4.659,4.343-10.786,6.75-17.152,6.741c-14.106,0.034-25.566-11.366-25.609-25.472c-0.026-9.301,5.009-17.886,13.15-22.4
		C51.08,180.386,55.364,179.243,59.733,179.2z"/>
</g>
<circle style="fill:#DD2E2B;" cx="256" cy="256" r="25.6"/>
<g>
	<path style="fill:#454545;" d="M418.27,408.841c-31.317-1.169-62.268-7.185-91.742-17.852
		c-25.429-8.516-50.253-18.756-74.291-30.643c-14.353-7.049-28.877-14.805-43.17-23.04c-14.293-8.235-28.16-16.93-41.54-25.907
		c-22.306-14.891-43.588-31.266-63.71-48.998c-11.691-10.394-22.801-21.419-33.28-33.033l12.715-11.383
		c10.061,11.127,20.727,21.7,31.949,31.659c19.541,17.22,40.209,33.118,61.875,47.573c13.03,8.772,26.675,17.28,40.55,25.293
		c13.875,8.013,28.16,15.633,42.163,22.519c23.347,11.546,47.462,21.487,72.158,29.764c67.012,22.229,118.417,22.502,130.97,0.683
		s-13.363-66.193-66.116-113.092c-19.456-17.289-40.107-33.195-61.798-47.59c-12.467-8.439-26.103-16.947-40.567-25.301
		c-13.961-8.064-28.16-15.633-42.163-22.519c-23.347-11.546-47.445-21.487-72.141-29.764
		c-67.004-22.187-118.409-22.485-130.97-0.683c-7.083,12.211-0.802,29.602,5.709,42.044l-15.121,7.919
		C27.349,162.85,25.54,143.172,34.347,128c17.545-30.455,72.636-33.007,151.125-6.972c25.429,8.516,50.253,18.756,74.291,30.643
		c14.353,7.049,28.877,14.805,43.17,23.04c14.822,8.533,28.8,17.28,41.566,25.924c22.332,14.831,43.588,31.206,63.633,49.007
		c61.807,54.929,87.159,103.91,69.521,134.357C468.147,400.529,447.59,408.841,418.27,408.841z"/>
	<path style="fill:#454545;" d="M449.015,362.88l-17.067-0.93c0.162-3.012-4.267-17.229-25.839-42.163l12.902-11.179
		C438.733,331.341,449.655,351.121,449.015,362.88z"/>
	<path style="fill:#454545;" d="M143.019,161.801c-5.743-1.417-11.307-2.671-16.469-3.661l3.243-16.759
		c5.427,1.05,11.29,2.364,17.323,3.857L143.019,161.801z"/>
	<path style="fill:#454545;" d="M79.019,155.93l-3.925-16.606c12.194-2.278,24.678-2.509,36.949-0.674l-2.039,16.939
		c-5.41-0.674-10.846-1.024-16.299-1.05C88.772,154.445,83.848,154.906,79.019,155.93z"/>
	<path style="fill:#454545;" d="M59.733,238.933c-18.816,0.034-34.099-15.198-34.133-34.014
		c-0.026-12.365,6.656-23.765,17.442-29.798l8.465,14.814c-5.393,3.021-8.764,8.687-8.841,14.865
		c0,9.429,7.637,17.067,17.067,17.067c4.215,0.017,8.286-1.587,11.358-4.471l11.588,12.527
		C76.442,235.716,68.241,238.933,59.733,238.933z"/>
	<path style="fill:#454545;" d="M82.645,229.948L71.117,217.37c6.929-6.306,7.433-17.024,1.126-23.953
		c-5.325-5.854-13.986-7.245-20.873-3.354l-8.183-14.976c16.35-9.216,37.077-3.439,46.302,12.919
		c2.884,5.12,4.395,10.906,4.378,16.794C93.867,214.391,89.788,223.539,82.645,229.948z"/>
	<path style="fill:#454545;" d="M93.739,408.841c-29.338,0-49.886-8.32-59.409-24.849c-17.638-30.473,7.68-79.454,69.487-134.374
		c20.113-17.749,41.395-34.116,63.71-48.998c12.74-8.627,26.718-17.348,41.54-25.907c14.293-8.252,28.817-16.009,43.17-23.04
		c24.038-11.887,48.862-22.127,74.291-30.643c78.507-26.044,133.581-23.492,151.142,6.997c7.91,13.491,7.253,30.874-1.997,51.593
		l-15.582-6.946c6.827-15.411,7.817-27.546,2.825-36.07c-12.604-21.871-64-21.598-131.012,0.623
		c-24.695,8.277-48.794,18.219-72.141,29.764c-14.012,6.886-28.203,14.455-42.163,22.519c-14.507,8.354-28.1,16.862-40.525,25.276
		c-21.675,14.447-42.342,30.345-61.875,47.582c-52.804,46.891-78.72,91.273-66.091,113.101c12.629,21.828,64,21.555,130.987-0.666
		c24.695-8.277,48.794-18.219,72.141-29.764c14.012-6.886,28.16-14.455,42.163-22.519c14.208-8.201,27.853-16.683,40.559-25.216
		c21.641-14.507,42.3-30.43,61.841-47.667c12.954-11.383,25.114-23.646,36.386-36.693l12.988,11.093
		c-11.785,13.653-24.491,26.487-38.033,38.4c-20.105,17.732-41.37,34.116-63.65,49.033c-13.047,8.755-27.017,17.442-41.557,25.839
		c-14.293,8.252-28.817,16.009-43.17,23.04c-24.038,11.887-48.862,22.127-74.291,30.643
		C156.006,401.655,125.056,407.671,93.739,408.841z"/>
	<path style="fill:#454545;" d="M363.938,163.123l-4.42-16.486c19.132-5.521,38.886-8.593,58.786-9.165h1.707v17.067h-1.707
		C399.889,155.051,381.611,157.935,363.938,163.123z"/>
	<path style="fill:#454545;" d="M93.696,374.528c-9.003,0.597-18.022-0.981-26.283-4.608c-2.611-1.408-4.301-4.079-4.463-7.04
		c-0.785-14.507,16.068-41.105,43.998-69.513l12.169,11.947c-23.757,24.166-34.517,42.112-37.897,51.2
		c4.113,0.666,8.277,0.973,12.442,0.922L93.696,374.528z"/>
	<path style="fill:#454545;" d="M452.267,230.4c-5.914-0.009-11.725-1.57-16.845-4.523l8.431-14.848
		c2.551,1.493,5.453,2.287,8.414,2.304c9.429,0,17.067-7.637,17.067-17.067c0.017-5.239-2.432-10.189-6.613-13.346l10.334-13.585
		c8.439,6.374,13.389,16.35,13.346,26.931C486.4,215.117,471.117,230.4,452.267,230.4z"/>
	<path style="fill:#454545;" d="M435.371,225.843c-16.367-9.301-22.084-30.114-12.783-46.473
		c6.067-10.667,17.399-17.254,29.679-17.237c7.586,0,14.942,2.569,20.881,7.279l-10.53,13.431
		c-2.944-2.347-6.588-3.627-10.351-3.644c-9.395-0.026-17.033,7.578-17.058,16.973c-0.017,6.178,3.319,11.878,8.704,14.891
		L435.371,225.843z"/>
	<path style="fill:#454545;" d="M256,512c-35.191,0-64.922-46.43-81.579-127.386c-5.325-26.308-8.883-52.941-10.65-79.727
		c-1.092-16.597-1.638-33.041-1.638-48.887s0.546-32.29,1.638-48.862c1.758-26.795,5.325-53.444,10.658-79.761
		C191.078,46.43,220.808,0,256,0s64.922,46.43,81.579,127.386c5.325,26.308,8.883,52.941,10.65,79.727
		c1.092,16.597,1.638,33.041,1.638,48.887s-0.546,32.367-1.638,48.939c-1.766,26.769-5.333,53.393-10.658,79.684
		c-3.661,18.603-8.747,36.907-15.198,54.733l-16.026-5.922c6.161-17.015,11.008-34.483,14.507-52.241
		c5.171-25.54,8.627-51.396,10.342-77.397c1.067-16.171,1.604-32.265,1.604-47.795s-0.538-31.573-1.604-47.744
		c-1.715-26.01-5.171-51.866-10.342-77.414C306.645,61.722,281.182,17.067,256,17.067s-50.645,44.655-64.853,113.766
		c-5.171,25.557-8.627,51.439-10.342,77.457c-1.067,16.137-1.604,32.23-1.604,47.71s0.538,31.573,1.604,47.744
		c1.715,26.01,5.171,51.866,10.342,77.414c14.208,69.12,39.671,113.775,64.853,113.775c9.549,0,19.226-6.434,28.766-19.123
		l13.653,10.24C285.474,503.279,271.206,512,256,512z"/>
	<path style="fill:#454545;" d="M240.853,81.655l-15.787-6.468c5.069-12.373,15.36-33.997,27.119-39.902l7.629,15.266
		C257.638,51.644,250.027,59.349,240.853,81.655z"/>
	<path style="fill:#454545;" d="M240.64,465.92c-11.221-17.015-19.601-35.755-24.798-55.467l16.35-4.864
		c4.676,17.758,12.134,34.662,22.101,50.091L240.64,465.92z"/>
	<path style="fill:#454545;" d="M307.2,494.933c-7.586,0-14.942-2.569-20.881-7.279l10.53-13.431
		c2.944,2.347,6.588,3.627,10.351,3.644c9.429,0,17.067-7.637,17.067-17.067c0.026-7.543-4.992-14.182-12.262-16.213l4.727-16.401
		c18.065,5.205,28.484,24.073,23.279,42.138C335.804,484.932,322.406,494.985,307.2,494.933z"/>
	<path style="fill:#454545;" d="M286.362,487.68c-8.38-6.4-13.295-16.341-13.295-26.88c0-18.85,15.283-34.133,34.133-34.133
		c3.26,0.043,6.485,0.563,9.591,1.553l-4.847,16.367c-1.536-0.512-3.132-0.802-4.745-0.853c-9.429,0-17.067,7.637-17.067,17.067
		c0.017,5.257,2.483,10.206,6.673,13.389L286.362,487.68z"/>
	<path style="fill:#454545;" d="M256,290.133c-18.85,0-34.133-15.283-34.133-34.133c0-18.85,15.283-34.133,34.133-34.133
		S290.133,237.15,290.133,256C290.133,274.85,274.85,290.133,256,290.133z M256,238.933c-9.429,0-17.067,7.637-17.067,17.067
		c0,9.429,7.637,17.067,17.067,17.067s17.067-7.637,17.067-17.067C273.067,246.571,265.429,238.933,256,238.933z"/>
</g>
<g>
</g>
<g>
</g>
<g>
</g>
<g>
</g>
<g>
</g>
<g>
</g>
<g>
</g>
<g>
</g>
<g>
</g>
<g>
</g>
<g>
</g>
<g>
</g>
<g>
</g>
<g>
</g>
<g>
</g>
</svg>
